<svg xmlns="http://www.w3.org/2000/svg" xmlns:xlink="http://www.w3.org/1999/xlink" version="1.1" x="0px" y="0px" viewBox="0 0 100 125" enable-background="new 0 0 100 100" xml:space="preserve"><g><g><g><path fill="none" d="M50,8.831c-22.701,0-41.17,18.469-41.17,41.17c0,22.7,18.469,41.168,41.17,41.168s41.17-18.468,41.17-41.168     C91.17,27.3,72.701,8.831,50,8.831z"/><path d="M50,5.001c-24.813,0-45,20.187-45,45c0,24.811,20.187,44.998,45,44.998s45-20.186,45-44.998     C95,25.189,74.813,5.001,50,5.001z M50,91.169c-22.701,0-41.17-18.468-41.17-41.168C8.83,27.3,27.299,8.831,50,8.831     S91.17,27.3,91.17,50.001C91.17,72.701,72.701,91.169,50,91.169z"/></g></g></g></svg>